<svg width="393" height="192" viewBox="0 0 393 192" fill="none" xmlns="http://www.w3.org/2000/svg">
<path d="M197.328 151.435C196.79 151.46 196.25 151.41 195.723 151.286V145.818C196.085 145.793 196.446 145.768 196.808 145.768C198.164 145.768 199.431 146.041 199.431 148.317C199.431 150.396 198.707 151.435 197.328 151.435ZM196.831 143.566C195.633 143.545 194.435 143.662 193.259 143.913V156.928H195.723V153.414C196.366 153.522 197.016 153.58 197.667 153.587C200.448 153.587 202.008 151.162 202.008 148.243C202.008 144.556 199.453 143.566 196.831 143.566ZM237.341 154.973C236.799 154.973 236.256 154.924 235.714 154.874V149.406H236.821C238.178 149.406 239.444 149.53 239.444 151.855C239.466 153.909 238.743 154.973 237.341 154.973ZM236.98 147.179C236.505 147.179 236.098 147.179 235.736 147.204V143.863H233.272V156.903C234.018 156.953 236.55 157.076 237.68 157.076C240.484 157.076 242.021 154.651 242.021 151.806C242.021 148.045 239.444 147.179 236.98 147.179ZM211.525 150.89C211.253 150.915 210.892 150.915 210.304 150.915C209.219 150.915 207.772 150.47 207.772 148.218C207.772 146.61 208.586 145.818 209.943 145.818C210.598 145.818 211.163 145.867 211.547 145.892V150.89L211.525 150.89ZM205.195 148.218C205.195 150.222 206.009 151.484 207.117 152.251C206.099 153.686 204.901 154.924 203.273 155.122L204.313 157.2C205.941 157.175 207.049 156.458 209.377 153.092C209.73 153.142 210.085 153.167 210.44 153.167C210.937 153.167 211.276 153.167 211.525 153.142V156.953H213.989V143.962C212.66 143.707 211.314 143.574 209.965 143.566C206.981 143.566 205.195 145.298 205.195 148.218ZM176.327 154.033C176.327 158.808 171.444 162 166.493 162L165.815 159.798C169.522 159.723 173.637 157.868 173.637 154.082C173.637 151.633 171.919 150.965 170.088 150.965C169.641 150.961 169.195 150.994 168.754 151.064V149.604L172.461 146.016H169.816C168.46 146.016 167.036 145.867 166.584 145.372L167.33 143.072C167.917 143.715 169.771 143.839 170.834 143.839H176.033V145.348L172.235 149.06C174.631 149.233 176.327 150.717 176.327 154.033ZM225.564 154.577H220.906C221.941 151.818 222.714 148.949 223.213 146.016H225.564V154.577ZM228.027 143.888H221.065C221.064 144.763 220.973 145.634 220.793 146.486C220.273 149.183 219.075 152.548 218.329 154.577H216.566L216.295 160.045H218.691L218.849 156.953H227.824L227.553 161.357H230.017L230.401 154.577H227.982V143.888L228.027 143.888ZM250.837 154.948C251.93 154.964 253.021 154.856 254.093 154.627V156.928C253.045 157.101 251.987 157.201 250.928 157.225C246.904 157.225 244.395 155.74 244.395 150.371C244.395 148.02 245.05 145.026 246.994 143.888H249.481C251.606 143.888 252.759 143.74 253.55 143.344L254.454 145.521C253.505 146.041 252.352 146.115 250.589 146.115H248.125C247.378 146.659 247.062 148.268 246.994 149.208H249.3C250.069 149.208 252.171 149.208 252.759 149.06L253.369 151.261C252.623 151.36 251.244 151.385 249.933 151.385H246.994C247.175 153.81 248.305 154.948 250.837 154.948ZM182.272 151.633C183.606 146.956 183.651 146.808 183.651 146.783C183.72 146.508 183.766 146.226 183.787 145.942H184.714L186.274 151.633H182.272ZM181.73 143.888C181.843 144.606 181.594 146.065 181.368 146.783L178.226 156.977H180.803L181.662 153.934H186.929L187.743 156.977H190.411L186.59 143.913H181.73V143.888Z" fill="white"/>
<path d="M141.67 151.045C141.296 151.051 140.923 150.996 140.564 150.88C140.265 150.785 139.987 150.627 139.744 150.415C139.525 150.22 139.346 149.977 139.219 149.702C139.089 149.408 139.015 149.088 139 148.761H140.182C140.205 148.938 140.253 149.109 140.325 149.268C140.401 149.418 140.501 149.551 140.621 149.66C140.756 149.768 140.908 149.849 141.069 149.898C141.265 149.957 141.467 149.985 141.67 149.981C142.191 149.981 142.566 149.881 142.795 149.681C142.91 149.585 143.002 149.459 143.063 149.315C143.125 149.171 143.154 149.013 143.148 148.855C143.15 148.696 143.124 148.538 143.071 148.389C143.019 148.242 142.929 148.113 142.814 148.017C142.679 147.903 142.523 147.822 142.356 147.78C142.133 147.713 141.901 147.681 141.67 147.687H140.859V146.736H141.67C142.102 146.736 142.417 146.632 142.614 146.425C142.709 146.33 142.784 146.213 142.835 146.083C142.886 145.953 142.911 145.813 142.909 145.671C142.912 145.532 142.886 145.393 142.833 145.266C142.78 145.139 142.702 145.027 142.604 144.938C142.407 144.745 142.096 144.648 141.67 144.648C141.474 144.645 141.278 144.669 141.088 144.72C140.944 144.761 140.808 144.831 140.688 144.927C140.58 145.016 140.495 145.133 140.44 145.268C140.38 145.408 140.341 145.559 140.325 145.713H139.143C139.158 145.408 139.226 145.11 139.343 144.834C139.453 144.573 139.616 144.343 139.82 144.162C140.049 143.966 140.311 143.822 140.592 143.739C140.943 143.629 141.306 143.577 141.67 143.584C142.483 143.584 143.09 143.766 143.491 144.131C143.691 144.31 143.851 144.538 143.957 144.797C144.062 145.055 144.112 145.337 144.101 145.62C144.109 145.971 144.005 146.315 143.805 146.591C143.605 146.86 143.336 147.058 143.033 147.159C143.401 147.242 143.736 147.452 143.987 147.759C144.232 148.079 144.358 148.488 144.339 148.906C144.342 149.202 144.283 149.496 144.168 149.764C144.05 150.031 143.877 150.264 143.662 150.446C143.41 150.648 143.125 150.799 142.823 150.89C142.447 151 142.059 151.052 141.67 151.045Z" fill="white"/>
<path d="M145.387 150.93L147.895 143.696H149.068L151.585 150.93H150.326L149.754 149.266H147.123L146.551 150.93H145.387ZM147.485 148.233H149.392L148.439 145.277L147.485 148.233Z" fill="white"/>
<path d="M153.132 151.044C153.081 151.044 153.024 151.04 152.96 151.033C152.906 151.033 152.851 151.027 152.798 151.013V149.834C152.816 149.842 152.836 149.846 152.855 149.845H152.941C153.099 149.851 153.256 149.804 153.389 149.71C153.542 149.553 153.646 149.347 153.685 149.122C153.777 148.694 153.832 148.258 153.847 147.819C153.879 147.254 153.895 146.5 153.895 145.556V143.696H158.089V150.93H156.916V144.77H155.029V145.763C155.04 146.671 154.998 147.578 154.905 148.481C154.854 149.034 154.732 149.577 154.543 150.093C154.43 150.414 154.222 150.683 153.952 150.858C153.695 150.987 153.414 151.05 153.132 151.044Z" fill="white"/>
<path fill-rule="evenodd" clip-rule="evenodd" d="M167.601 82.3314C167.44 82.689 167.299 83.0562 167.176 83.4312V133.136H167.601V82.3314ZM172.622 74.7299C172.478 74.8986 172.336 75.0669 172.197 75.2348V133.136H172.622V74.7299ZM177.644 69.7786C177.501 69.897 177.359 70.0161 177.219 70.1356V133.136H177.644V69.7786ZM182.666 66.2648C182.523 66.3475 182.381 66.431 182.241 66.5154V133.136H182.666V66.2648ZM187.688 63.8861C187.545 63.9391 187.403 63.9929 187.263 64.0477V133.136H187.688V63.8861ZM192.709 62.4945C192.567 62.5208 192.425 62.5482 192.284 62.5765V133.136H192.709V62.4945ZM197.731 62C197.589 62.0019 197.447 62.0048 197.306 62.0087V133.136H197.731V62ZM202.752 62.5396C202.611 62.5073 202.469 62.4764 202.327 62.4468V133.136H202.752V62.5396ZM207.774 64.2072C207.632 64.1465 207.491 64.0868 207.349 64.0283V133.136H207.774V64.2072ZM212.796 66.7681C212.654 66.6853 212.513 66.6034 212.371 66.5223V133.136H212.796V66.7681ZM217.817 69.9995C217.676 69.9009 217.534 69.8029 217.393 69.7054V133.136H217.817V69.9995ZM222.839 73.6853C222.697 73.577 222.556 73.469 222.414 73.3612V133.136H222.839V73.6853ZM227.861 77.6074C227.719 77.4956 227.577 77.3838 227.436 77.2719V133.136H227.861V77.6074ZM232.883 81.5366C232.741 81.428 232.599 81.319 232.457 81.2098V133.136H232.883V81.5366ZM237.904 85.2223C237.763 85.1245 237.621 85.0259 237.479 84.9266V133.136H237.904V85.2223ZM242.926 88.3777C242.784 88.2993 242.643 88.2198 242.501 88.1392V133.136H242.926V88.3777ZM247.948 90.66C247.806 90.6118 247.665 90.562 247.522 90.5106V133.136H247.948V90.66ZM252.969 91.6378C252.828 91.6336 252.686 91.6271 252.544 91.6185V133.136H252.969V91.6378Z" fill="white"/>
<path fill-rule="evenodd" clip-rule="evenodd" d="M168.649 96.3779C168.249 96.8713 167.889 97.3403 167.572 97.7718V133.137H168.649V96.3779ZM173.671 91.3378C173.3 91.6348 172.941 91.9367 172.593 92.2436V133.137H173.671V91.3378ZM178.693 88.2071C178.327 88.3734 177.967 88.5492 177.615 88.7346V133.137H178.693V88.2071ZM183.714 86.7223C183.35 86.7734 182.991 86.8356 182.637 86.9089V133.137H183.714V86.7223ZM188.736 86.7242C188.382 86.6799 188.023 86.6443 187.658 86.6174V133.137H188.736V86.7242ZM193.758 88.0196C193.404 87.8784 193.045 87.7464 192.68 87.6236V133.137H193.758V88.0196ZM198.779 90.8004C198.425 90.5486 198.066 90.3054 197.702 90.0707V133.137H198.779V90.8004ZM203.801 95.1055C203.445 94.7543 203.086 94.4084 202.724 94.068V133.137H203.801V95.1055ZM208.822 100.411C208.624 100.196 208.425 99.98 208.227 99.7641C208.067 99.5897 207.906 99.4153 207.745 99.2409V133.137H208.822L208.822 100.411ZM213.844 105.565C213.481 105.228 213.122 104.884 212.767 104.534V133.137H213.844V105.565ZM218.866 109.516C218.502 109.286 218.143 109.047 217.789 108.799V133.137H218.866V109.516ZM223.888 111.896C223.523 111.779 223.164 111.652 222.81 111.516V133.137H223.888V111.896ZM228.909 112.822C228.545 112.801 228.186 112.772 227.832 112.733V133.137H228.909V112.822ZM233.931 112.505C233.575 112.571 233.216 112.628 232.853 112.676V133.137H233.931V112.505ZM238.953 110.954C238.599 111.107 238.24 111.253 237.875 111.392V133.137H238.953V110.954ZM243.974 108.127C243.623 108.371 243.264 108.61 242.897 108.845V133.137H243.974V108.127ZM248.996 103.912C248.653 104.253 248.294 104.597 247.918 104.944V133.137H248.996V103.912ZM254.018 97.9014C253.952 98.0026 253.584 98.563 252.94 99.4121V133.137H254.018V97.9014Z" fill="white"/>
<path fill-rule="evenodd" clip-rule="evenodd" d="M253.403 113.075V133.136H251.183V110.802C252.165 111.765 252.922 112.56 253.403 113.075ZM248.381 108.18V133.136H246.162V106.278C246.946 106.923 247.688 107.563 248.381 108.18ZM243.359 104.093V133.136H241.14V102.542C241.899 103.044 242.64 103.565 243.359 104.093ZM238.337 100.823V133.136H236.118V99.6689C236.866 100.025 237.607 100.412 238.337 100.823ZM233.316 98.5042V133.136H231.096V97.843C231.836 98.0212 232.577 98.2438 233.316 98.5042ZM228.294 97.3924V133.136H226.075V97.3981C226.442 97.3662 226.81 97.3501 227.181 97.3499C227.55 97.3499 227.921 97.364 228.294 97.3924ZM223.272 97.9419V133.136H221.053V98.778C221.776 98.4485 222.517 98.1692 223.272 97.9419ZM218.251 100.295V133.136H216.031V101.812C216.769 101.268 217.508 100.759 218.251 100.295ZM213.229 104.049V133.136H211.01V106.008C211.75 105.334 212.489 104.678 213.229 104.049ZM208.207 108.623V133.136H205.988V110.735C206.319 110.42 206.65 110.106 206.979 109.792C207.39 109.401 207.799 109.011 208.207 108.623ZM200.966 115.346C201.713 114.699 202.452 114.034 203.186 113.361V133.136H200.966V115.346ZM195.945 119.293C196.693 118.775 197.433 118.229 198.164 117.659V133.136H195.945V119.293ZM168.034 116.469C167.241 115.609 166.5 114.694 165.815 113.729V133.136H168.034V116.469ZM193.142 121.056V133.136H190.923V122.188C191.673 121.847 192.412 121.467 193.142 121.056ZM188.12 123.259C187.39 123.486 186.649 123.67 185.902 123.813V133.136H188.12V123.259ZM183.099 124.131C182.871 124.139 182.643 124.143 182.413 124.143C181.901 124.143 181.389 124.113 180.88 124.054V133.136H183.099V124.131ZM178.077 123.44C177.321 123.195 176.579 122.897 175.858 122.547V133.136H178.077V123.44ZM173.056 120.909C172.29 120.38 171.549 119.809 170.836 119.197V133.136H173.056V120.909Z" fill="white"/>
</svg>
