<svg width="393" height="192" viewBox="0 0 393 192" fill="none" xmlns="http://www.w3.org/2000/svg">
<path d="M71.3949 132.698C70.4149 133.678 69.2156 134.168 67.7969 134.168C66.3783 134.168 65.1789 133.678 64.1989 132.698C63.2189 131.699 62.7289 130.5 62.7289 129.1C62.7289 127.691 63.2189 126.496 64.1989 125.516C65.1789 124.527 66.3783 124.032 67.7969 124.032C69.2156 124.032 70.4149 124.527 71.3949 125.516C72.3749 126.496 72.8649 127.691 72.8649 129.1C72.8649 130.5 72.3749 131.699 71.3949 132.698ZM63.7089 129.1C63.7089 130.257 64.1009 131.233 64.8849 132.026C65.6689 132.819 66.6396 133.216 67.7969 133.216C68.9543 133.216 69.9249 132.819 70.7089 132.026C71.4929 131.233 71.8849 130.257 71.8849 129.1C71.8849 127.952 71.4929 126.981 70.7089 126.188C69.9249 125.385 68.9543 124.984 67.7969 124.984C66.6396 124.984 65.6689 125.385 64.8849 126.188C64.1009 126.981 63.7089 127.952 63.7089 129.1ZM79.3569 130.052V127H80.2809V134H79.3569V130.948H75.3249V134H74.4009V127H75.3249V130.052H79.3569ZM82.9629 127H87.9749V134H87.0509V127.896H83.8869V131.018C83.8869 132.185 83.6629 132.987 83.2149 133.426C82.7762 133.865 82.1695 134.056 81.3949 134V133.132C81.9362 133.188 82.3329 133.057 82.5849 132.74C82.8369 132.423 82.9629 131.849 82.9629 131.018V127ZM95.9521 128.372V127H96.8761V134H95.9521V132.628C95.3081 133.655 94.3655 134.168 93.1241 134.168C92.1255 134.168 91.2715 133.813 90.5621 133.104C89.8621 132.395 89.5121 131.527 89.5121 130.5C89.5121 129.473 89.8621 128.605 90.5621 127.896C91.2715 127.187 92.1255 126.832 93.1241 126.832C94.3655 126.832 95.3081 127.345 95.9521 128.372ZM91.2341 132.474C91.7661 133.006 92.4195 133.272 93.1941 133.272C93.9688 133.272 94.6221 133.006 95.1541 132.474C95.6861 131.923 95.9521 131.265 95.9521 130.5C95.9521 129.725 95.6861 129.072 95.1541 128.54C94.6221 127.999 93.9688 127.728 93.1941 127.728C92.4195 127.728 91.7661 127.999 91.2341 128.54C90.7021 129.072 90.4361 129.725 90.4361 130.5C90.4361 131.265 90.7021 131.923 91.2341 132.474ZM103.593 125.88H99.9525V125.068H103.593V125.88ZM99.7565 132.39L103.929 127H104.713V134H103.789V128.61L99.6165 134H98.8325V127H99.7565V132.39ZM111.623 130.052V127H112.547V134H111.623V130.948H107.591V134H106.667V127H107.591V130.052H111.623ZM119.681 130.122H114.641V129.226H119.681V130.122ZM127.57 127H128.634V134H127.71V128.414L125.26 132.39H125.148L122.698 128.414V134H121.774V127H122.838L125.204 130.836L127.57 127ZM133.826 126.832C134.872 126.832 135.707 127.201 136.332 127.938C136.976 128.666 137.298 129.529 137.298 130.528C137.298 130.575 137.289 130.719 137.27 130.962H131.124C131.218 131.662 131.516 132.222 132.02 132.642C132.524 133.062 133.154 133.272 133.91 133.272C134.974 133.272 135.726 132.875 136.164 132.082L136.976 132.558C136.668 133.062 136.244 133.459 135.702 133.748C135.17 134.028 134.568 134.168 133.896 134.168C132.795 134.168 131.899 133.823 131.208 133.132C130.518 132.441 130.172 131.564 130.172 130.5C130.172 129.445 130.513 128.573 131.194 127.882C131.876 127.182 132.753 126.832 133.826 126.832ZM133.826 127.728C133.098 127.728 132.487 127.943 131.992 128.372C131.507 128.801 131.218 129.366 131.124 130.066H136.346C136.244 129.319 135.959 128.745 135.492 128.344C135.007 127.933 134.452 127.728 133.826 127.728ZM143.724 130.052V127H144.648V134H143.724V130.948H139.692V134H138.768V127H139.692V130.052H143.724ZM152.58 126.832C153.607 126.832 154.475 127.187 155.184 127.896C155.903 128.596 156.262 129.464 156.262 130.5C156.262 131.527 155.903 132.399 155.184 133.118C154.465 133.818 153.597 134.168 152.58 134.168C151.647 134.168 150.835 133.865 150.144 133.258C149.463 132.633 149.075 131.863 148.982 130.948H147.526V134H146.602V127H147.526V130.052H148.982C149.085 129.128 149.472 128.363 150.144 127.756C150.825 127.14 151.637 126.832 152.58 126.832ZM150.62 132.474C151.152 133.006 151.805 133.272 152.58 133.272C153.355 133.272 154.008 133.006 154.54 132.474C155.072 131.923 155.338 131.265 155.338 130.5C155.338 129.725 155.072 129.072 154.54 128.54C154.008 127.999 153.355 127.728 152.58 127.728C151.805 127.728 151.152 127.999 150.62 128.54C150.088 129.072 149.822 129.725 149.822 130.5C149.822 131.265 150.088 131.923 150.62 132.474ZM163.497 127H166.339V134H165.415V131.312H164.211L162.055 134H160.879L163.091 131.284C162.522 131.2 162.055 130.967 161.691 130.584C161.337 130.192 161.159 129.721 161.159 129.17C161.159 128.545 161.383 128.027 161.831 127.616C162.298 127.205 162.853 127 163.497 127ZM163.497 130.444H165.415V127.896H163.497C163.096 127.896 162.76 128.017 162.489 128.26C162.219 128.493 162.083 128.797 162.083 129.17C162.083 129.543 162.219 129.851 162.489 130.094C162.76 130.327 163.096 130.444 163.497 130.444ZM168.299 127H174.179V134H173.255V127.896H169.223V134H168.299V127ZM181.999 133.118C181.281 133.818 180.413 134.168 179.395 134.168C178.359 134.168 177.487 133.818 176.777 133.118C176.068 132.409 175.713 131.536 175.713 130.5C175.713 129.464 176.068 128.596 176.777 127.896C177.487 127.187 178.359 126.832 179.395 126.832C180.422 126.832 181.29 127.187 181.999 127.896C182.718 128.596 183.077 129.464 183.077 130.5C183.077 131.527 182.718 132.399 181.999 133.118ZM177.435 132.474C177.967 133.006 178.621 133.272 179.395 133.272C180.17 133.272 180.823 133.006 181.355 132.474C181.887 131.923 182.153 131.265 182.153 130.5C182.153 129.725 181.887 129.072 181.355 128.54C180.823 127.999 180.17 127.728 179.395 127.728C178.621 127.728 177.967 127.999 177.435 128.54C176.903 129.072 176.637 129.725 176.637 130.5C176.637 131.265 176.903 131.923 177.435 132.474ZM189.58 130.052V127H190.504V134H189.58V130.948H185.548V134H184.624V127H185.548V130.052H189.58ZM198.324 133.118C197.605 133.818 196.737 134.168 195.72 134.168C194.684 134.168 193.811 133.818 193.102 133.118C192.392 132.409 192.038 131.536 192.038 130.5C192.038 129.464 192.392 128.596 193.102 127.896C193.811 127.187 194.684 126.832 195.72 126.832C196.746 126.832 197.614 127.187 198.324 127.896C199.042 128.596 199.402 129.464 199.402 130.5C199.402 131.527 199.042 132.399 198.324 133.118ZM193.76 132.474C194.292 133.006 194.945 133.272 195.72 133.272C196.494 133.272 197.148 133.006 197.68 132.474C198.212 131.923 198.478 131.265 198.478 130.5C198.478 129.725 198.212 129.072 197.68 128.54C197.148 127.999 196.494 127.728 195.72 127.728C194.945 127.728 194.292 127.999 193.76 128.54C193.228 129.072 192.962 129.725 192.962 130.5C192.962 131.265 193.228 131.923 193.76 132.474ZM206.128 130.122H201.088V129.226H206.128V130.122ZM208.221 127H214.101V134H213.177V127.896H209.145V134H208.221V127ZM219.289 126.832C220.335 126.832 221.17 127.201 221.795 127.938C222.439 128.666 222.761 129.529 222.761 130.528C222.761 130.575 222.752 130.719 222.733 130.962H216.587C216.681 131.662 216.979 132.222 217.483 132.642C217.987 133.062 218.617 133.272 219.373 133.272C220.437 133.272 221.189 132.875 221.627 132.082L222.439 132.558C222.131 133.062 221.707 133.459 221.165 133.748C220.633 134.028 220.031 134.168 219.359 134.168C218.258 134.168 217.362 133.823 216.671 133.132C215.981 132.441 215.635 131.564 215.635 130.5C215.635 129.445 215.976 128.573 216.657 127.882C217.339 127.182 218.216 126.832 219.289 126.832ZM219.289 127.728C218.561 127.728 217.95 127.943 217.455 128.372C216.97 128.801 216.681 129.366 216.587 130.066H221.809C221.707 129.319 221.422 128.745 220.955 128.344C220.47 127.933 219.915 127.728 219.289 127.728ZM227.983 126.832C228.982 126.832 229.831 127.187 230.531 127.896C231.24 128.605 231.595 129.473 231.595 130.5C231.595 131.527 231.24 132.395 230.531 133.104C229.831 133.813 228.982 134.168 227.983 134.168C226.742 134.168 225.799 133.655 225.155 132.628V136.8H224.231V127H225.155V128.372C225.799 127.345 226.742 126.832 227.983 126.832ZM225.953 132.474C226.485 133.006 227.138 133.272 227.913 133.272C228.688 133.272 229.341 133.006 229.873 132.474C230.405 131.923 230.671 131.265 230.671 130.5C230.671 129.725 230.405 129.072 229.873 128.54C229.341 127.999 228.688 127.728 227.913 127.728C227.138 127.728 226.485 127.999 225.953 128.54C225.421 129.072 225.155 129.725 225.155 130.5C225.155 131.265 225.421 131.923 225.953 132.474ZM235.63 132.866L237.898 127H238.878L235.882 134.644C235.602 135.353 235.21 135.899 234.706 136.282C234.211 136.674 233.661 136.847 233.054 136.8V135.932C233.894 136.035 234.533 135.549 234.972 134.476L235.154 134.042L232.018 127H232.998L235.63 132.866ZM245.741 128.372V127H246.665V134H245.741V132.628C245.097 133.655 244.155 134.168 242.913 134.168C241.915 134.168 241.061 133.813 240.351 133.104C239.651 132.395 239.301 131.527 239.301 130.5C239.301 129.473 239.651 128.605 240.351 127.896C241.061 127.187 241.915 126.832 242.913 126.832C244.155 126.832 245.097 127.345 245.741 128.372ZM241.023 132.474C241.555 133.006 242.209 133.272 242.983 133.272C243.758 133.272 244.411 133.006 244.943 132.474C245.475 131.923 245.741 131.265 245.741 130.5C245.741 129.725 245.475 129.072 244.943 128.54C244.411 127.999 243.758 127.728 242.983 127.728C242.209 127.728 241.555 127.999 241.023 128.54C240.491 129.072 240.225 129.725 240.225 130.5C240.225 131.265 240.491 131.923 241.023 132.474ZM253.578 130.052V127H254.502V134H253.578V130.948H249.546V134H248.622V127H249.546V130.052H253.578ZM259.718 134.168C258.663 134.168 257.786 133.818 257.086 133.118C256.386 132.399 256.036 131.527 256.036 130.5C256.036 129.464 256.386 128.596 257.086 127.896C257.786 127.187 258.663 126.832 259.718 126.832C260.408 126.832 261.029 127 261.58 127.336C262.13 127.663 262.532 128.106 262.784 128.666L262.028 129.1C261.841 128.68 261.538 128.349 261.118 128.106C260.707 127.854 260.24 127.728 259.718 127.728C258.943 127.728 258.29 127.999 257.758 128.54C257.226 129.072 256.96 129.725 256.96 130.5C256.96 131.265 257.226 131.923 257.758 132.474C258.29 133.006 258.943 133.272 259.718 133.272C260.231 133.272 260.693 133.151 261.104 132.908C261.524 132.665 261.85 132.329 262.084 131.9L262.854 132.348C262.564 132.908 262.14 133.351 261.58 133.678C261.02 134.005 260.399 134.168 259.718 134.168ZM266.084 130.36L269.836 134H268.604L265.104 130.626V134H264.18V127H265.104V130.094L268.436 127H269.696L266.084 130.36ZM276.267 133.118C275.548 133.818 274.68 134.168 273.663 134.168C272.627 134.168 271.754 133.818 271.045 133.118C270.336 132.409 269.981 131.536 269.981 130.5C269.981 129.464 270.336 128.596 271.045 127.896C271.754 127.187 272.627 126.832 273.663 126.832C274.69 126.832 275.558 127.187 276.267 127.896C276.986 128.596 277.345 129.464 277.345 130.5C277.345 131.527 276.986 132.399 276.267 133.118ZM271.703 132.474C272.235 133.006 272.888 133.272 273.663 133.272C274.438 133.272 275.091 133.006 275.623 132.474C276.155 131.923 276.421 131.265 276.421 130.5C276.421 129.725 276.155 129.072 275.623 128.54C275.091 127.999 274.438 127.728 273.663 127.728C272.888 127.728 272.235 127.999 271.703 128.54C271.171 129.072 270.905 129.725 270.905 130.5C270.905 131.265 271.171 131.923 271.703 132.474ZM283.651 125.88H280.011V125.068H283.651V125.88ZM279.815 132.39L283.987 127H284.771V134H283.847V128.61L279.675 134H278.891V127H279.815V132.39ZM292.129 130.36L295.881 134H294.649L291.149 130.626V134H290.225V127H291.149V130.094L294.481 127H295.741L292.129 130.36ZM299.642 132.866L301.91 127H302.89L299.894 134.644C299.614 135.353 299.222 135.899 298.718 136.282C298.223 136.674 297.672 136.847 297.066 136.8V135.932C297.906 136.035 298.545 135.549 298.984 134.476L299.166 134.042L296.03 127H297.01L299.642 132.866ZM307.156 130.374L309.886 134H308.78L306.596 131.116L304.412 134H303.306L306.05 130.374L303.488 127H304.594L306.596 129.646L308.598 127H309.704L307.156 130.374ZM316.099 130.052V127H317.023V134H316.099V130.948H312.067V134H311.143V127H312.067V130.052H316.099ZM319.901 132.39L324.073 127H324.857V134H323.933V128.61L319.761 134H318.977V127H319.901V132.39ZM134.126 143.832C135.124 143.832 135.974 144.187 136.674 144.896C137.383 145.605 137.738 146.473 137.738 147.5C137.738 148.527 137.383 149.395 136.674 150.104C135.974 150.813 135.124 151.168 134.126 151.168C132.884 151.168 131.942 150.655 131.298 149.628V153.8H130.374V144H131.298V145.372C131.942 144.345 132.884 143.832 134.126 143.832ZM132.096 149.474C132.628 150.006 133.281 150.272 134.056 150.272C134.83 150.272 135.484 150.006 136.016 149.474C136.548 148.923 136.814 148.265 136.814 147.5C136.814 146.725 136.548 146.072 136.016 145.54C135.484 144.999 134.83 144.728 134.056 144.728C133.281 144.728 132.628 144.999 132.096 145.54C131.564 146.072 131.298 146.725 131.298 147.5C131.298 148.265 131.564 148.923 132.096 149.474ZM142.508 143.832C143.553 143.832 144.389 144.201 145.014 144.938C145.658 145.666 145.98 146.529 145.98 147.528C145.98 147.575 145.971 147.719 145.952 147.962H139.806C139.899 148.662 140.198 149.222 140.702 149.642C141.206 150.062 141.836 150.272 142.592 150.272C143.656 150.272 144.407 149.875 144.846 149.082L145.658 149.558C145.35 150.062 144.925 150.459 144.384 150.748C143.852 151.028 143.25 151.168 142.578 151.168C141.477 151.168 140.581 150.823 139.89 150.132C139.199 149.441 138.854 148.564 138.854 147.5C138.854 146.445 139.195 145.573 139.876 144.882C140.557 144.182 141.435 143.832 142.508 143.832ZM142.508 144.728C141.78 144.728 141.169 144.943 140.674 145.372C140.189 145.801 139.899 146.366 139.806 147.066H145.028C144.925 146.319 144.641 145.745 144.174 145.344C143.689 144.933 143.133 144.728 142.508 144.728ZM150.712 151.168C149.657 151.168 148.78 150.818 148.08 150.118C147.38 149.399 147.03 148.527 147.03 147.5C147.03 146.464 147.38 145.596 148.08 144.896C148.78 144.187 149.657 143.832 150.712 143.832C151.402 143.832 152.023 144 152.574 144.336C153.124 144.663 153.526 145.106 153.778 145.666L153.022 146.1C152.835 145.68 152.532 145.349 152.112 145.106C151.701 144.854 151.234 144.728 150.712 144.728C149.937 144.728 149.284 144.999 148.752 145.54C148.22 146.072 147.954 146.725 147.954 147.5C147.954 148.265 148.22 148.923 148.752 149.474C149.284 150.006 149.937 150.272 150.712 150.272C151.225 150.272 151.687 150.151 152.098 149.908C152.518 149.665 152.844 149.329 153.078 148.9L153.848 149.348C153.558 149.908 153.134 150.351 152.574 150.678C152.014 151.005 151.393 151.168 150.712 151.168ZM154.198 144H160.078V144.896H157.6V151H156.676V144.896H154.198V144ZM166.796 150.118C166.078 150.818 165.21 151.168 164.192 151.168C163.156 151.168 162.284 150.818 161.574 150.118C160.865 149.409 160.51 148.536 160.51 147.5C160.51 146.464 160.865 145.596 161.574 144.896C162.284 144.187 163.156 143.832 164.192 143.832C165.219 143.832 166.087 144.187 166.796 144.896C167.515 145.596 167.874 146.464 167.874 147.5C167.874 148.527 167.515 149.399 166.796 150.118ZM162.232 149.474C162.764 150.006 163.418 150.272 164.192 150.272C164.967 150.272 165.62 150.006 166.152 149.474C166.684 148.923 166.95 148.265 166.95 147.5C166.95 146.725 166.684 146.072 166.152 145.54C165.62 144.999 164.967 144.728 164.192 144.728C163.418 144.728 162.764 144.999 162.232 145.54C161.7 146.072 161.434 146.725 161.434 147.5C161.434 148.265 161.7 148.923 162.232 149.474ZM173.172 143.832C174.171 143.832 175.02 144.187 175.72 144.896C176.43 145.605 176.784 146.473 176.784 147.5C176.784 148.527 176.43 149.395 175.72 150.104C175.02 150.813 174.171 151.168 173.172 151.168C171.931 151.168 170.988 150.655 170.344 149.628V153.8H169.42V144H170.344V145.372C170.988 144.345 171.931 143.832 173.172 143.832ZM171.142 149.474C171.674 150.006 172.328 150.272 173.102 150.272C173.877 150.272 174.53 150.006 175.062 149.474C175.594 148.923 175.86 148.265 175.86 147.5C175.86 146.725 175.594 146.072 175.062 145.54C174.53 144.999 173.877 144.728 173.102 144.728C172.328 144.728 171.674 144.999 171.142 145.54C170.61 146.072 170.344 146.725 170.344 147.5C170.344 148.265 170.61 148.923 171.142 149.474ZM184.341 145.372V144H185.265V151H184.341V149.628C183.697 150.655 182.754 151.168 181.513 151.168C180.514 151.168 179.66 150.813 178.951 150.104C178.251 149.395 177.901 148.527 177.901 147.5C177.901 146.473 178.251 145.605 178.951 144.896C179.66 144.187 180.514 143.832 181.513 143.832C182.754 143.832 183.697 144.345 184.341 145.372ZM179.623 149.474C180.155 150.006 180.808 150.272 181.583 150.272C182.357 150.272 183.011 150.006 183.543 149.474C184.075 148.923 184.341 148.265 184.341 147.5C184.341 146.725 184.075 146.072 183.543 145.54C183.011 144.999 182.357 144.728 181.583 144.728C180.808 144.728 180.155 144.999 179.623 145.54C179.091 146.072 178.825 146.725 178.825 147.5C178.825 148.265 179.091 148.923 179.623 149.474ZM192.177 147.052V144H193.101V151H192.177V147.948H188.145V151H187.221V144H188.145V147.052H192.177ZM201.075 145.372V144H201.999V151H201.075V149.628C200.431 150.655 199.489 151.168 198.247 151.168C197.249 151.168 196.395 150.813 195.685 150.104C194.985 149.395 194.635 148.527 194.635 147.5C194.635 146.473 194.985 145.605 195.685 144.896C196.395 144.187 197.249 143.832 198.247 143.832C199.489 143.832 200.431 144.345 201.075 145.372ZM196.357 149.474C196.889 150.006 197.543 150.272 198.317 150.272C199.092 150.272 199.745 150.006 200.277 149.474C200.809 148.923 201.075 148.265 201.075 147.5C201.075 146.725 200.809 146.072 200.277 145.54C199.745 144.999 199.092 144.728 198.317 144.728C197.543 144.728 196.889 144.999 196.357 145.54C195.825 146.072 195.559 146.725 195.559 147.5C195.559 148.265 195.825 148.923 196.357 149.474ZM206.756 141.2H213.756V142.124H210.746V151H209.766V142.124H206.756V141.2ZM214.76 145.834C214.76 146.375 215.24 146.772 216.202 147.024C216.472 147.089 216.65 147.136 216.734 147.164C216.818 147.183 216.981 147.234 217.224 147.318C217.476 147.393 217.648 147.458 217.742 147.514C217.844 147.57 217.984 147.659 218.162 147.78C218.339 147.892 218.465 148.009 218.54 148.13C218.614 148.242 218.684 148.391 218.75 148.578C218.815 148.755 218.848 148.947 218.848 149.152C218.848 149.749 218.61 150.235 218.134 150.608C217.676 150.981 217.07 151.168 216.314 151.168C215.66 151.168 215.096 151.023 214.62 150.734C214.144 150.435 213.808 150.043 213.612 149.558L214.396 149.096C214.526 149.46 214.76 149.749 215.096 149.964C215.441 150.169 215.847 150.272 216.314 150.272C216.79 150.272 217.177 150.179 217.476 149.992C217.774 149.805 217.924 149.525 217.924 149.152C217.924 148.611 217.443 148.214 216.482 147.962C216.211 147.897 216.034 147.855 215.95 147.836C215.866 147.808 215.698 147.757 215.446 147.682C215.203 147.598 215.03 147.528 214.928 147.472C214.834 147.416 214.699 147.332 214.522 147.22C214.344 147.099 214.218 146.982 214.144 146.87C214.069 146.749 213.999 146.599 213.934 146.422C213.868 146.235 213.836 146.039 213.836 145.834C213.836 145.265 214.06 144.789 214.508 144.406C214.974 144.023 215.548 143.832 216.23 143.832C216.79 143.832 217.284 143.958 217.714 144.21C218.152 144.462 218.474 144.812 218.68 145.26L217.91 145.708C217.648 145.055 217.088 144.728 216.23 144.728C215.81 144.728 215.46 144.826 215.18 145.022C214.9 145.218 214.76 145.489 214.76 145.834ZM225.249 147.668V144H226.173V151H225.249V149.908C224.726 150.748 223.942 151.168 222.897 151.168C222.057 151.168 221.389 150.911 220.895 150.398C220.4 149.875 220.153 149.175 220.153 148.298V144H221.077V148.298C221.077 148.923 221.24 149.409 221.567 149.754C221.903 150.099 222.374 150.272 222.981 150.272C223.681 150.272 224.231 150.053 224.633 149.614C225.043 149.175 225.249 148.527 225.249 147.668ZM231.403 143.832C232.243 143.832 232.911 144.093 233.405 144.616C233.9 145.129 234.147 145.825 234.147 146.702V151H233.223V146.702C233.223 146.077 233.055 145.591 232.719 145.246C232.393 144.901 231.926 144.728 231.319 144.728C230.619 144.728 230.064 144.947 229.653 145.386C229.252 145.825 229.051 146.473 229.051 147.332V151H228.127V144H229.051V145.092C229.574 144.252 230.358 143.832 231.403 143.832ZM241.954 145.372V144H242.878V151H241.954V149.628C241.31 150.655 240.367 151.168 239.126 151.168C238.127 151.168 237.273 150.813 236.564 150.104C235.864 149.395 235.514 148.527 235.514 147.5C235.514 146.473 235.864 145.605 236.564 144.896C237.273 144.187 238.127 143.832 239.126 143.832C240.367 143.832 241.31 144.345 241.954 145.372ZM237.236 149.474C237.768 150.006 238.421 150.272 239.196 150.272C239.971 150.272 240.624 150.006 241.156 149.474C241.688 148.923 241.954 148.265 241.954 147.5C241.954 146.725 241.688 146.072 241.156 145.54C240.624 144.999 239.971 144.728 239.196 144.728C238.421 144.728 237.768 144.999 237.236 145.54C236.704 146.072 236.438 146.725 236.438 147.5C236.438 148.265 236.704 148.923 237.236 149.474ZM252.296 143.832C253.09 143.832 253.724 144.084 254.2 144.588C254.676 145.092 254.914 145.773 254.914 146.632V151H253.99V146.632C253.99 146.035 253.836 145.568 253.528 145.232C253.22 144.896 252.805 144.728 252.282 144.728C251.676 144.728 251.2 144.929 250.854 145.33C250.509 145.731 250.336 146.329 250.336 147.122V151H249.412V146.632C249.412 146.025 249.268 145.559 248.978 145.232C248.689 144.896 248.288 144.728 247.774 144.728C247.186 144.728 246.701 144.933 246.318 145.344C245.945 145.755 245.758 146.347 245.758 147.122V151H244.834V144H245.758V145.022C246.262 144.229 246.976 143.832 247.9 143.832C248.918 143.832 249.627 144.257 250.028 145.106C250.532 144.257 251.288 143.832 252.296 143.832ZM257.836 141.844C257.836 142.031 257.77 142.189 257.64 142.32C257.509 142.451 257.35 142.516 257.164 142.516C256.977 142.516 256.818 142.451 256.688 142.32C256.557 142.189 256.492 142.031 256.492 141.844C256.492 141.657 256.557 141.499 256.688 141.368C256.818 141.237 256.977 141.172 257.164 141.172C257.35 141.172 257.509 141.237 257.64 141.368C257.77 141.499 257.836 141.657 257.836 141.844ZM257.626 151H256.702V144H257.626V151Z" fill="white"/>
<path d="M90 54.2212H108.745V59.001H101.96V76.5647H96.7851V59.001H90V54.2212Z" fill="white"/>
<path d="M120.667 60.2909C120.667 56.8389 123.427 53.842 127.951 53.842C130.864 53.842 133.164 54.7904 134.582 56.3078L131.822 60.1391C130.825 59.2288 130.059 58.6218 128.41 58.6218C126.992 58.6218 126.149 59.2667 126.149 60.2909C126.149 64.0085 135.579 63.0982 135.579 70.3815C135.579 74.2889 132.205 76.9823 127.836 76.9823C124.807 76.9823 121.28 75.6924 120.169 73.3025L123.12 69.8125C124.424 71.4438 126.379 72.1645 127.951 72.1645C129.292 72.1645 130.097 71.4817 130.097 70.4574C130.097 67.0813 120.667 67.4985 120.667 60.2909Z" fill="white"/>
<path d="M167.703 67.3465C167.703 74.1747 163.294 76.982 158.464 76.982C152.638 76.982 148.613 73.6816 148.613 67.1569V54.259H153.788V66.0947C153.788 69.5847 154.861 72.2401 158.464 72.2401C161.608 72.2401 162.528 69.964 162.528 66.3981V54.297H167.703V67.3465Z" fill="white"/>
<path d="M198.102 76.6028L187.368 63.1739V76.6028H182.539V54.2212H186.679L197.412 67.6881V54.2212H202.242V76.6028H198.102Z" fill="white"/>
<path d="M224.016 54.2212H228.615L238.007 76.6028H232.487L230.609 71.8988H221.677L219.799 76.6028H214.586L224.016 54.2212ZM223.632 67.0811H228.693L226.162 60.746L223.632 67.0811Z" fill="white"/>
<path d="M250.39 54.2212H255.603L262.579 63.629L269.173 54.2212H274.042V76.6028H268.866V62.3393L262.579 71.0642H261.852L255.603 62.453V76.6028H250.39V54.2212Z" fill="white"/>
<path d="M289.26 59.3042H294.436V76.6025H289.26V59.3042Z" fill="white"/>
<path d="M292.212 48L289.26 54.2213H294.397L298 48H292.212Z" fill="#FF7A00"/>
<path d="M138.186 91.2439H139.336V105.849H138.186V91.2439ZM141.406 98.1476L148.689 105.849H147.195L140.064 98.2235L147.003 91.2439H148.421L141.406 98.1476Z" fill="white"/>
<path d="M156.356 91.2439H157.506V105.849H156.356V91.2439Z" fill="white"/>
<path d="M164.79 91.2439H176.865V92.344H171.422V105.849H170.272V92.344H164.829V91.2439H164.79Z" fill="white"/>
<path d="M193.694 104.407C192.698 105.393 190.857 106 189.132 106C184.762 106 181.734 103.041 181.734 98.5268C181.734 94.3162 184.532 91.054 188.979 91.054C190.82 91.054 192.314 91.5091 193.464 92.4198L192.927 93.2919C191.854 92.4956 190.627 92.1541 189.018 92.1541C185.452 92.1541 182.999 94.8476 182.999 98.5651C182.999 102.396 185.567 104.976 189.247 104.976C190.82 104.976 192.238 104.445 193.272 103.61L193.694 104.407Z" fill="white"/>
<path d="M211.327 98.9444H202.128V105.849H200.978V91.2439H202.128V97.8442H211.327V91.2439H212.477V105.849H211.327V98.9444Z" fill="white"/>
<path d="M221.37 91.2439H229.536V92.344H222.521V97.92H228.923V99.0202H222.56V104.786H229.767V105.886H221.41V91.2439H221.37Z" fill="white"/>
<path d="M248.933 105.849L238.852 93.2918V105.849H237.739V91.2439H238.659L248.741 103.838V91.2439H249.853V105.849H248.933Z" fill="white"/>
</svg>
