<svg width="48" height="48" viewBox="0 0 48 48" fill="none" xmlns="http://www.w3.org/2000/svg">
<path d="M1 15.936C1 12.678 1.17588 10.1282 1.62072 8.12656C2.06304 6.1363 2.75787 4.74987 3.75387 3.75387C4.74987 2.75787 6.1363 2.06304 8.12656 1.62072C10.1282 1.17588 12.678 1 15.936 1H32.064C35.322 1 37.8718 1.17588 39.8734 1.62072C41.8637 2.06304 43.2501 2.75787 44.2461 3.75387C45.2421 4.74987 45.937 6.1363 46.3793 8.12656C46.8241 10.1282 47 12.678 47 15.936V32.064C47 35.322 46.8241 37.8718 46.3793 39.8734C45.937 41.8637 45.2421 43.2501 44.2461 44.2461C43.2501 45.2421 41.8637 45.937 39.8734 46.3793C37.8718 46.8241 35.322 47 32.064 47H15.936C12.678 47 10.1282 46.8241 8.12656 46.3793C6.1363 45.937 4.74987 45.2421 3.75387 44.2461C2.75787 43.2501 2.06304 41.8637 1.62072 39.8734C1.17588 37.8718 1 35.322 1 32.064V15.936Z" fill="#555555" stroke="#BBBBBB" stroke-width="2"/>
<path fill-rule="evenodd" clip-rule="evenodd" d="M28.0002 31.9877H30.9902L31.0002 23.6117L23.9982 16.4197L17.0062 23.5708L17.0002 31.9877H20.0002V24.9878C20.0002 24.4347 20.4472 23.9878 21.0002 23.9878H27.0002C27.5522 23.9878 28.0002 24.4347 28.0002 24.9878V31.9877ZM26.0002 31.9877H22.0002V25.9878H26.0002V31.9877ZM32.4242 22.1728L24.7152 14.2887C24.3382 13.9038 23.6622 13.9038 23.2852 14.2887L15.5752 22.1737C15.2102 22.5487 15.0002 23.0728 15.0002 23.6117V31.9877C15.0002 33.0907 15.8472 33.9877 16.8882 33.9877H21.0002H27.0002H31.1112C32.1522 33.9877 33.0002 33.0907 33.0002 31.9877V23.6117C33.0002 23.0728 32.7902 22.5488 32.4242 22.1728Z" fill="white"/>
</svg>
