<svg width="48" height="48" viewBox="0 0 48 48" fill="none" xmlns="http://www.w3.org/2000/svg">
<path d="M1 15.936C1 12.678 1.17588 10.1282 1.62072 8.12656C2.06304 6.1363 2.75787 4.74987 3.75387 3.75387C4.74987 2.75787 6.1363 2.06304 8.12656 1.62072C10.1282 1.17588 12.678 1 15.936 1H32.064C35.322 1 37.8718 1.17588 39.8734 1.62072C41.8637 2.06304 43.2501 2.75787 44.2461 3.75387C45.2421 4.74987 45.937 6.1363 46.3793 8.12656C46.8241 10.1282 47 12.678 47 15.936V32.064C47 35.322 46.8241 37.8718 46.3793 39.8734C45.937 41.8637 45.2421 43.2501 44.2461 44.2461C43.2501 45.2421 41.8637 45.937 39.8734 46.3793C37.8718 46.8241 35.322 47 32.064 47H15.936C12.678 47 10.1282 46.8241 8.12656 46.3793C6.1363 45.937 4.74987 45.2421 3.75387 44.2461C2.75787 43.2501 2.06304 41.8637 1.62072 39.8734C1.17588 37.8718 1 35.322 1 32.064V15.936Z" fill="#555555" stroke="#1C1C1C" stroke-width="2"/>
</svg>
