<svg width="176" height="48" viewBox="0 0 176 48" fill="none" xmlns="http://www.w3.org/2000/svg">
<path d="M1 15.936C1 12.678 1.17588 10.1282 1.62072 8.12656C2.06304 6.1363 2.75787 4.74987 3.75387 3.75387C4.74987 2.75787 6.1363 2.06304 8.12656 1.62072C10.1282 1.17588 12.678 1 15.936 1H160.064C163.322 1 165.872 1.17588 167.873 1.62072C169.864 2.06304 171.25 2.75787 172.246 3.75387C173.242 4.74987 173.937 6.1363 174.379 8.12656C174.824 10.1282 175 12.678 175 15.936V32.064C175 35.322 174.824 37.8718 174.379 39.8734C173.937 41.8637 173.242 43.2501 172.246 44.2461C171.25 45.2421 169.864 45.937 167.873 46.3793C165.872 46.8241 163.322 47 160.064 47H15.936C12.678 47 10.1282 46.8241 8.12656 46.3793C6.1363 45.937 4.74987 45.2421 3.75387 44.2461C2.75787 43.2501 2.06304 41.8637 1.62072 39.8734C1.17588 37.8718 1 35.322 1 32.064V15.936Z" fill="#222222" stroke="#555555" stroke-width="2"/>
<path d="M17.12 18.2H22.58V19.124H18.1V28H17.12V18.2ZM28.3148 27.118C27.5961 27.818 26.7281 28.168 25.7108 28.168C24.6748 28.168 23.8021 27.818 23.0928 27.118C22.3834 26.4087 22.0288 25.536 22.0288 24.5C22.0288 23.464 22.3834 22.596 23.0928 21.896C23.8021 21.1867 24.6748 20.832 25.7108 20.832C26.7374 20.832 27.6054 21.1867 28.3148 21.896C29.0334 22.596 29.3928 23.464 29.3928 24.5C29.3928 25.5267 29.0334 26.3993 28.3148 27.118ZM23.7508 26.474C24.2828 27.006 24.9361 27.272 25.7108 27.272C26.4854 27.272 27.1388 27.006 27.6708 26.474C28.2028 25.9233 28.4688 25.2653 28.4688 24.5C28.4688 23.7253 28.2028 23.072 27.6708 22.54C27.1388 21.9987 26.4854 21.728 25.7108 21.728C24.9361 21.728 24.2828 21.9987 23.7508 22.54C23.2188 23.072 22.9528 23.7253 22.9528 24.5C22.9528 25.2653 23.2188 25.9233 23.7508 26.474ZM34.691 20.832C35.6897 20.832 36.539 21.1867 37.239 21.896C37.9483 22.6053 38.303 23.4733 38.303 24.5C38.303 25.5267 37.9483 26.3947 37.239 27.104C36.539 27.8133 35.6897 28.168 34.691 28.168C33.4497 28.168 32.507 27.6547 31.863 26.628V30.8H30.939V21H31.863V22.372C32.507 21.3453 33.4497 20.832 34.691 20.832ZM32.661 26.474C33.193 27.006 33.8463 27.272 34.621 27.272C35.3957 27.272 36.049 27.006 36.581 26.474C37.113 25.9233 37.379 25.2653 37.379 24.5C37.379 23.7253 37.113 23.072 36.581 22.54C36.049 21.9987 35.3957 21.728 34.621 21.728C33.8463 21.728 33.193 21.9987 32.661 22.54C32.129 23.072 31.863 23.7253 31.863 24.5C31.863 25.2653 32.129 25.9233 32.661 26.474ZM41.7639 21H44.6059V28H43.6819V25.312H42.4779L40.3219 28H39.1459L41.3579 25.284C40.7886 25.2 40.3219 24.9667 39.9579 24.584C39.6033 24.192 39.4259 23.7207 39.4259 23.17C39.4259 22.5447 39.6499 22.0267 40.0979 21.616C40.5646 21.2053 41.1199 21 41.7639 21ZM41.7639 24.444H43.6819V21.896H41.7639C41.3626 21.896 41.0266 22.0173 40.7559 22.26C40.4853 22.4933 40.3499 22.7967 40.3499 23.17C40.3499 23.5433 40.4853 23.8513 40.7559 24.094C41.0266 24.3273 41.3626 24.444 41.7639 24.444ZM51.1019 24.486V21H52.0259V28H51.1019V25.34C50.5606 25.62 49.8933 25.76 49.0999 25.76C48.1759 25.76 47.4759 25.55 46.9999 25.13C46.5239 24.7007 46.2859 24.0707 46.2859 23.24V21H47.2099V23.24C47.2099 23.8187 47.3593 24.2387 47.6579 24.5C47.9659 24.7613 48.4373 24.892 49.0719 24.892C49.7813 24.892 50.4579 24.7567 51.1019 24.486ZM54.9138 26.39L59.0858 21H59.8698V28H58.9458V22.61L54.7738 28H53.9898V21H54.9138V26.39ZM65.0578 20.832C66.1031 20.832 66.9384 21.2007 67.5638 21.938C68.2078 22.666 68.5298 23.5293 68.5298 24.528C68.5298 24.5747 68.5204 24.7193 68.5018 24.962H62.3558C62.4491 25.662 62.7478 26.222 63.2518 26.642C63.7558 27.062 64.3858 27.272 65.1418 27.272C66.2058 27.272 66.9571 26.8753 67.3958 26.082L68.2078 26.558C67.8998 27.062 67.4751 27.4587 66.9338 27.748C66.4018 28.028 65.7998 28.168 65.1278 28.168C64.0264 28.168 63.1304 27.8227 62.4398 27.132C61.7491 26.4413 61.4038 25.564 61.4038 24.5C61.4038 23.4453 61.7444 22.5727 62.4258 21.882C63.1071 21.182 63.9844 20.832 65.0578 20.832ZM65.0578 21.728C64.3298 21.728 63.7184 21.9427 63.2238 22.372C62.7384 22.8013 62.4491 23.366 62.3558 24.066H67.5778C67.4751 23.3193 67.1904 22.7453 66.7238 22.344C66.2384 21.9333 65.6831 21.728 65.0578 21.728ZM76.7615 28.168C75.7069 28.168 74.8295 27.818 74.1295 27.118C73.4295 26.3993 73.0795 25.5267 73.0795 24.5C73.0795 23.464 73.4295 22.596 74.1295 21.896C74.8295 21.1867 75.7069 20.832 76.7615 20.832C77.4522 20.832 78.0729 21 78.6235 21.336C79.1742 21.6627 79.5755 22.106 79.8275 22.666L79.0715 23.1C78.8849 22.68 78.5815 22.3487 78.1615 22.106C77.7509 21.854 77.2842 21.728 76.7615 21.728C75.9869 21.728 75.3335 21.9987 74.8015 22.54C74.2695 23.072 74.0035 23.7253 74.0035 24.5C74.0035 25.2653 74.2695 25.9233 74.8015 26.474C75.3335 27.006 75.9869 27.272 76.7615 27.272C77.2749 27.272 77.7369 27.1507 78.1475 26.908C78.5675 26.6653 78.8942 26.3293 79.1275 25.9L79.8975 26.348C79.6082 26.908 79.1835 27.3513 78.6235 27.678C78.0635 28.0047 77.4429 28.168 76.7615 28.168ZM87.1758 22.372V21H88.0998V28H87.1758V26.628C86.5318 27.6547 85.5891 28.168 84.3478 28.168C83.3491 28.168 82.4951 27.8133 81.7858 27.104C81.0858 26.3947 80.7358 25.5267 80.7358 24.5C80.7358 23.4733 81.0858 22.6053 81.7858 21.896C82.4951 21.1867 83.3491 20.832 84.3478 20.832C85.5891 20.832 86.5318 21.3453 87.1758 22.372ZM82.4578 26.474C82.9898 27.006 83.6431 27.272 84.4178 27.272C85.1924 27.272 85.8458 27.006 86.3778 26.474C86.9098 25.9233 87.1758 25.2653 87.1758 24.5C87.1758 23.7253 86.9098 23.072 86.3778 22.54C85.8458 21.9987 85.1924 21.728 84.4178 21.728C83.6431 21.728 82.9898 21.9987 82.4578 22.54C81.9258 23.072 81.6598 23.7253 81.6598 24.5C81.6598 25.2653 81.9258 25.9233 82.4578 26.474ZM90.7842 21H95.7962V28H94.8722V21.896H91.7082V25.018C91.7082 26.1847 91.4842 26.9873 91.0362 27.426C90.5975 27.8647 89.9908 28.056 89.2162 28V27.132C89.7575 27.188 90.1542 27.0573 90.4062 26.74C90.6582 26.4227 90.7842 25.8487 90.7842 25.018V21ZM103.773 22.372V21H104.697V28H103.773V26.628C103.129 27.6547 102.187 28.168 100.945 28.168C99.9468 28.168 99.0928 27.8133 98.3834 27.104C97.6834 26.3947 97.3334 25.5267 97.3334 24.5C97.3334 23.4733 97.6834 22.6053 98.3834 21.896C99.0928 21.1867 99.9468 20.832 100.945 20.832C102.187 20.832 103.129 21.3453 103.773 22.372ZM99.0554 26.474C99.5874 27.006 100.241 27.272 101.015 27.272C101.79 27.272 102.443 27.006 102.975 26.474C103.507 25.9233 103.773 25.2653 103.773 24.5C103.773 23.7253 103.507 23.072 102.975 22.54C102.443 21.9987 101.79 21.728 101.015 21.728C100.241 21.728 99.5874 21.9987 99.0554 22.54C98.5234 23.072 98.2574 23.7253 98.2574 24.5C98.2574 25.2653 98.5234 25.9233 99.0554 26.474ZM105.814 21H111.694V21.896H109.216V28H108.292V21.896H105.814V21ZM113.744 23.66H115.662C116.306 23.66 116.857 23.8653 117.314 24.276C117.771 24.6773 118 25.1953 118 25.83C118 26.474 117.771 26.9967 117.314 27.398C116.875 27.7993 116.325 28 115.662 28H112.82V21H113.744V23.66ZM118.98 28V21H119.904V28H118.98ZM113.744 27.104H115.662C116.063 27.104 116.399 26.9873 116.67 26.754C116.941 26.5113 117.076 26.2033 117.076 25.83C117.076 25.4567 116.941 25.1533 116.67 24.92C116.399 24.6773 116.063 24.556 115.662 24.556H113.744V27.104Z" fill="white"/>
</svg>
