<svg width="176" height="48" viewBox="0 0 176 48" fill="none" xmlns="http://www.w3.org/2000/svg">
<path d="M1 15.936C1 12.678 1.17588 10.1282 1.62072 8.12656C2.06304 6.1363 2.75787 4.74987 3.75387 3.75387C4.74987 2.75787 6.1363 2.06304 8.12656 1.62072C10.1282 1.17588 12.678 1 15.936 1H160.064C163.322 1 165.872 1.17588 167.873 1.62072C169.864 2.06304 171.25 2.75787 172.246 3.75387C173.242 4.74987 173.937 6.1363 174.379 8.12656C174.824 10.1282 175 12.678 175 15.936V32.064C175 35.322 174.824 37.8718 174.379 39.8734C173.937 41.8637 173.242 43.2501 172.246 44.2461C171.25 45.2421 169.864 45.937 167.873 46.3793C165.872 46.8241 163.322 47 160.064 47H15.936C12.678 47 10.1282 46.8241 8.12656 46.3793C6.1363 45.937 4.74987 45.2421 3.75387 44.2461C2.75787 43.2501 2.06304 41.8637 1.62072 39.8734C1.17588 37.8718 1 35.322 1 32.064V15.936Z" fill="#222222" stroke="#555555" stroke-width="2"/>
<path d="M21.698 28.168C20.2047 28.168 18.9773 27.678 18.016 26.698C17.0453 25.7087 16.56 24.5093 16.56 23.1C16.56 21.6907 17.0453 20.4913 18.016 19.502C18.9773 18.522 20.2047 18.032 21.698 18.032C22.594 18.032 23.42 18.2513 24.176 18.69C24.932 19.1193 25.52 19.7027 25.94 20.44L25.072 20.944C24.764 20.3467 24.3067 19.8707 23.7 19.516C23.0933 19.1613 22.426 18.984 21.698 18.984C20.466 18.984 19.4673 19.3807 18.702 20.174C17.9273 20.9767 17.54 21.952 17.54 23.1C17.54 24.248 17.9273 25.2233 18.702 26.026C19.4673 26.8193 20.466 27.216 21.698 27.216C22.426 27.216 23.0933 27.0387 23.7 26.684C24.3067 26.3293 24.764 25.8533 25.072 25.256L25.94 25.746C25.5387 26.4833 24.9553 27.0713 24.19 27.51C23.4247 27.9487 22.594 28.168 21.698 28.168ZM36.7076 21H37.7716V28H36.8476V22.414L34.3976 26.39H34.2856L31.8356 22.414V28H30.9116V21H31.9756L34.3416 24.836L36.7076 21ZM45.596 27.118C44.8773 27.818 44.0093 28.168 42.992 28.168C41.956 28.168 41.0833 27.818 40.374 27.118C39.6647 26.4087 39.31 25.536 39.31 24.5C39.31 23.464 39.6647 22.596 40.374 21.896C41.0833 21.1867 41.956 20.832 42.992 20.832C44.0187 20.832 44.8867 21.1867 45.596 21.896C46.3147 22.596 46.674 23.464 46.674 24.5C46.674 25.5267 46.3147 26.3993 45.596 27.118ZM41.032 26.474C41.564 27.006 42.2173 27.272 42.992 27.272C43.7667 27.272 44.42 27.006 44.952 26.474C45.484 25.9233 45.75 25.2653 45.75 24.5C45.75 23.7253 45.484 23.072 44.952 22.54C44.42 21.9987 43.7667 21.728 42.992 21.728C42.2173 21.728 41.564 21.9987 41.032 22.54C40.5 23.072 40.234 23.7253 40.234 24.5C40.234 25.2653 40.5 25.9233 41.032 26.474ZM51.9722 20.832C52.9709 20.832 53.8202 21.1867 54.5202 21.896C55.2296 22.6053 55.5842 23.4733 55.5842 24.5C55.5842 25.5267 55.2296 26.3947 54.5202 27.104C53.8202 27.8133 52.9709 28.168 51.9722 28.168C50.7309 28.168 49.7882 27.6547 49.1442 26.628V30.8H48.2202V21H49.1442V22.372C49.7882 21.3453 50.7309 20.832 51.9722 20.832ZM49.9422 26.474C50.4742 27.006 51.1276 27.272 51.9022 27.272C52.6769 27.272 53.3302 27.006 53.8622 26.474C54.3942 25.9233 54.6602 25.2653 54.6602 24.5C54.6602 23.7253 54.3942 23.072 53.8622 22.54C53.3302 21.9987 52.6769 21.728 51.9022 21.728C51.1276 21.728 50.4742 21.9987 49.9422 22.54C49.4102 23.072 49.1442 23.7253 49.1442 24.5C49.1442 25.2653 49.4102 25.9233 49.9422 26.474ZM60.3546 20.832C61.4 20.832 62.2353 21.2007 62.8606 21.938C63.5046 22.666 63.8266 23.5293 63.8266 24.528C63.8266 24.5747 63.8173 24.7193 63.7986 24.962H57.6526C57.746 25.662 58.0446 26.222 58.5486 26.642C59.0526 27.062 59.6826 27.272 60.4386 27.272C61.5026 27.272 62.254 26.8753 62.6926 26.082L63.5046 26.558C63.1966 27.062 62.772 27.4587 62.2306 27.748C61.6986 28.028 61.0966 28.168 60.4246 28.168C59.3233 28.168 58.4273 27.8227 57.7366 27.132C57.046 26.4413 56.7006 25.564 56.7006 24.5C56.7006 23.4453 57.0413 22.5727 57.7226 21.882C58.404 21.182 59.2813 20.832 60.3546 20.832ZM60.3546 21.728C59.6266 21.728 59.0153 21.9427 58.5206 22.372C58.0353 22.8013 57.746 23.366 57.6526 24.066H62.8746C62.772 23.3193 62.4873 22.7453 62.0206 22.344C61.5353 21.9333 60.98 21.728 60.3546 21.728ZM65.2964 21H71.1764V28H70.2524V21.896H66.2204V28H65.2964V21ZM76.8824 20.832C77.8811 20.832 78.7304 21.1867 79.4304 21.896C80.1397 22.6053 80.4944 23.4733 80.4944 24.5C80.4944 25.5267 80.1397 26.3947 79.4304 27.104C78.7304 27.8133 77.8811 28.168 76.8824 28.168C75.6411 28.168 74.6984 27.6547 74.0544 26.628V30.8H73.1304V21H74.0544V22.372C74.6984 21.3453 75.6411 20.832 76.8824 20.832ZM74.8524 26.474C75.3844 27.006 76.0377 27.272 76.8124 27.272C77.5871 27.272 78.2404 27.006 78.7724 26.474C79.3044 25.9233 79.5704 25.2653 79.5704 24.5C79.5704 23.7253 79.3044 23.072 78.7724 22.54C78.2404 21.9987 77.5871 21.728 76.8124 21.728C76.0377 21.728 75.3844 21.9987 74.8524 22.54C74.3204 23.072 74.0544 23.7253 74.0544 24.5C74.0544 25.2653 74.3204 25.9233 74.8524 26.474ZM87.8968 27.118C87.1781 27.818 86.3101 28.168 85.2928 28.168C84.2568 28.168 83.3841 27.818 82.6748 27.118C81.9654 26.4087 81.6108 25.536 81.6108 24.5C81.6108 23.464 81.9654 22.596 82.6748 21.896C83.3841 21.1867 84.2568 20.832 85.2928 20.832C86.3194 20.832 87.1874 21.1867 87.8968 21.896C88.6154 22.596 88.9748 23.464 88.9748 24.5C88.9748 25.5267 88.6154 26.3993 87.8968 27.118ZM83.3328 26.474C83.8648 27.006 84.5181 27.272 85.2928 27.272C86.0674 27.272 86.7208 27.006 87.2528 26.474C87.7848 25.9233 88.0508 25.2653 88.0508 24.5C88.0508 23.7253 87.7848 23.072 87.2528 22.54C86.7208 21.9987 86.0674 21.728 85.2928 21.728C84.5181 21.728 83.8648 21.9987 83.3328 22.54C82.8008 23.072 82.5348 23.7253 82.5348 24.5C82.5348 25.2653 82.8008 25.9233 83.3328 26.474ZM96.1276 21V27.104H97.1076V29.876H96.1836V28H90.4716V29.876H89.5476V27.104H90.4016C90.8776 26.4693 91.1156 25.5873 91.1156 24.458V21H96.1276ZM91.5216 27.104H95.2036V21.896H92.0396V24.458C92.0396 25.5407 91.8669 26.4227 91.5216 27.104ZM101.004 26.866L103.272 21H104.252L101.256 28.644C100.976 29.3533 100.584 29.8993 100.08 30.282C99.5853 30.674 99.0346 30.8467 98.428 30.8V29.932C99.268 30.0347 99.9073 29.5493 100.346 28.476L100.528 28.042L97.392 21H98.372L101.004 26.866ZM107.273 24.36L111.025 28H109.793L106.293 24.626V28H105.369V21H106.293V24.094L109.625 21H110.885L107.273 24.36ZM111.447 21H117.327V21.896H114.849V28H113.925V21.896H111.447V21ZM124.199 22.372V21H125.123V28H124.199V26.628C123.555 27.6547 122.613 28.168 121.371 28.168C120.373 28.168 119.519 27.8133 118.809 27.104C118.109 26.3947 117.759 25.5267 117.759 24.5C117.759 23.4733 118.109 22.6053 118.809 21.896C119.519 21.1867 120.373 20.832 121.371 20.832C122.613 20.832 123.555 21.3453 124.199 22.372ZM119.481 26.474C120.013 27.006 120.667 27.272 121.441 27.272C122.216 27.272 122.869 27.006 123.401 26.474C123.933 25.9233 124.199 25.2653 124.199 24.5C124.199 23.7253 123.933 23.072 123.401 22.54C122.869 21.9987 122.216 21.728 121.441 21.728C120.667 21.728 120.013 21.9987 119.481 22.54C118.949 23.072 118.683 23.7253 118.683 24.5C118.683 25.2653 118.949 25.9233 119.481 26.474ZM132.876 21H133.94V28H133.016V22.414L130.566 26.39H130.454L128.004 22.414V28H127.08V21H128.144L130.51 24.836L132.876 21ZM136.822 26.39L140.994 21H141.778V28H140.854V22.61L136.682 28H135.898V21H136.822V26.39Z" fill="white"/>
</svg>
