<svg width="176" height="48" viewBox="0 0 176 48" fill="none" xmlns="http://www.w3.org/2000/svg">
<path d="M1 15.936C1 12.678 1.17588 10.1282 1.62072 8.12656C2.06304 6.1363 2.75787 4.74987 3.75387 3.75387C4.74987 2.75787 6.1363 2.06304 8.12656 1.62072C10.1282 1.17588 12.678 1 15.936 1H160.064C163.322 1 165.872 1.17588 167.873 1.62072C169.864 2.06304 171.25 2.75787 172.246 3.75387C173.242 4.74987 173.937 6.1363 174.379 8.12656C174.824 10.1282 175 12.678 175 15.936V32.064C175 35.322 174.824 37.8718 174.379 39.8734C173.937 41.8637 173.242 43.2501 172.246 44.2461C171.25 45.2421 169.864 45.937 167.873 46.3793C165.872 46.8241 163.322 47 160.064 47H15.936C12.678 47 10.1282 46.8241 8.12656 46.3793C6.1363 45.937 4.74987 45.2421 3.75387 44.2461C2.75787 43.2501 2.06304 41.8637 1.62072 39.8734C1.17588 37.8718 1 35.322 1 32.064V15.936Z" fill="#222222" stroke="#555555" stroke-width="2"/>
<path d="M22.552 22.918C23.0373 23.1233 23.42 23.436 23.7 23.856C23.98 24.276 24.12 24.7473 24.12 25.27C24.12 26.026 23.854 26.67 23.322 27.202C22.79 27.734 22.146 28 21.39 28H17.12V18.2H21.068C21.7867 18.2 22.4073 18.4613 22.93 18.984C23.4433 19.4973 23.7 20.1133 23.7 20.832C23.7 21.7467 23.3173 22.442 22.552 22.918ZM21.068 19.124H18.1V22.54H21.068C21.516 22.54 21.9033 22.3767 22.23 22.05C22.5567 21.7047 22.72 21.2987 22.72 20.832C22.72 20.3747 22.5567 19.9733 22.23 19.628C21.9033 19.292 21.516 19.124 21.068 19.124ZM18.1 27.076H21.39C21.8753 27.076 22.286 26.9033 22.622 26.558C22.9673 26.2127 23.14 25.7833 23.14 25.27C23.14 24.766 22.9673 24.3413 22.622 23.996C22.286 23.6413 21.8753 23.464 21.39 23.464H18.1V27.076ZM28.8956 20.832C29.941 20.832 30.7763 21.2007 31.4016 21.938C32.0456 22.666 32.3676 23.5293 32.3676 24.528C32.3676 24.5747 32.3583 24.7193 32.3396 24.962H26.1936C26.287 25.662 26.5856 26.222 27.0896 26.642C27.5936 27.062 28.2236 27.272 28.9796 27.272C30.0436 27.272 30.795 26.8753 31.2336 26.082L32.0456 26.558C31.7376 27.062 31.313 27.4587 30.7716 27.748C30.2396 28.028 29.6376 28.168 28.9656 28.168C27.8643 28.168 26.9683 27.8227 26.2776 27.132C25.587 26.4413 25.2416 25.564 25.2416 24.5C25.2416 23.4453 25.5823 22.5727 26.2636 21.882C26.945 21.182 27.8223 20.832 28.8956 20.832ZM28.8956 21.728C28.1676 21.728 27.5563 21.9427 27.0616 22.372C26.5763 22.8013 26.287 23.366 26.1936 24.066H31.4156C31.313 23.3193 31.0283 22.7453 30.5616 22.344C30.0763 21.9333 29.521 21.728 28.8956 21.728ZM33.8374 21H38.3174V21.896H34.7614V28H33.8374V21ZM45.1895 22.372V21H46.1135V28H45.1895V26.628C44.5455 27.6547 43.6028 28.168 42.3615 28.168C41.3628 28.168 40.5088 27.8133 39.7995 27.104C39.0995 26.3947 38.7495 25.5267 38.7495 24.5C38.7495 23.4733 39.0995 22.6053 39.7995 21.896C40.5088 21.1867 41.3628 20.832 42.3615 20.832C43.6028 20.832 44.5455 21.3453 45.1895 22.372ZM40.4715 26.474C41.0035 27.006 41.6568 27.272 42.4315 27.272C43.2061 27.272 43.8595 27.006 44.3915 26.474C44.9235 25.9233 45.1895 25.2653 45.1895 24.5C45.1895 23.7253 44.9235 23.072 44.3915 22.54C43.8595 21.9987 43.2061 21.728 42.4315 21.728C41.6568 21.728 41.0035 21.9987 40.4715 22.54C39.9395 23.072 39.6735 23.7253 39.6735 24.5C39.6735 25.2653 39.9395 25.9233 40.4715 26.474ZM47.2298 21H53.1098V21.896H50.6318V28H49.7078V21.896H47.2298V21ZM57.1964 20.832C58.2418 20.832 59.0771 21.2007 59.7024 21.938C60.3464 22.666 60.6684 23.5293 60.6684 24.528C60.6684 24.5747 60.6591 24.7193 60.6404 24.962H54.4944C54.5878 25.662 54.8864 26.222 55.3904 26.642C55.8944 27.062 56.5244 27.272 57.2804 27.272C58.3444 27.272 59.0958 26.8753 59.5344 26.082L60.3464 26.558C60.0384 27.062 59.6138 27.4587 59.0724 27.748C58.5404 28.028 57.9384 28.168 57.2664 28.168C56.1651 28.168 55.2691 27.8227 54.5784 27.132C53.8878 26.4413 53.5424 25.564 53.5424 24.5C53.5424 23.4453 53.8831 22.5727 54.5644 21.882C55.2458 21.182 56.1231 20.832 57.1964 20.832ZM57.1964 21.728C56.4684 21.728 55.8571 21.9427 55.3624 22.372C54.8771 22.8013 54.5878 23.366 54.4944 24.066H59.7164C59.6138 23.3193 59.3291 22.7453 58.8624 22.344C58.3771 21.9333 57.8218 21.728 57.1964 21.728ZM65.8902 20.832C66.8889 20.832 67.7382 21.1867 68.4382 21.896C69.1475 22.6053 69.5022 23.4733 69.5022 24.5C69.5022 25.5267 69.1475 26.3947 68.4382 27.104C67.7382 27.8133 66.8889 28.168 65.8902 28.168C64.6489 28.168 63.7062 27.6547 63.0622 26.628V30.8H62.1382V21H63.0622V22.372C63.7062 21.3453 64.6489 20.832 65.8902 20.832ZM63.8602 26.474C64.3922 27.006 65.0455 27.272 65.8202 27.272C66.5949 27.272 67.2482 27.006 67.7802 26.474C68.3122 25.9233 68.5782 25.2653 68.5782 24.5C68.5782 23.7253 68.3122 23.072 67.7802 22.54C67.2482 21.9987 66.5949 21.728 65.8202 21.728C65.0455 21.728 64.3922 21.9987 63.8602 22.54C63.3282 23.072 63.0622 23.7253 63.0622 24.5C63.0622 25.2653 63.3282 25.9233 63.8602 26.474ZM71.9626 26.39L76.1346 21H76.9186V28H75.9946V22.61L71.8226 28H71.0386V21H71.9626V26.39ZM84.8926 22.372V21H85.8166V28H84.8926V26.628C84.2486 27.6547 83.3059 28.168 82.0646 28.168C81.0659 28.168 80.2119 27.8133 79.5026 27.104C78.8026 26.3947 78.4526 25.5267 78.4526 24.5C78.4526 23.4733 78.8026 22.6053 79.5026 21.896C80.2119 21.1867 81.0659 20.832 82.0646 20.832C83.3059 20.832 84.2486 21.3453 84.8926 22.372ZM80.1746 26.474C80.7066 27.006 81.3599 27.272 82.1346 27.272C82.9092 27.272 83.5626 27.006 84.0946 26.474C84.6266 25.9233 84.8926 25.2653 84.8926 24.5C84.8926 23.7253 84.6266 23.072 84.0946 22.54C83.5626 21.9987 82.9092 21.728 82.1346 21.728C81.3599 21.728 80.7066 21.9987 80.1746 22.54C79.6426 23.072 79.3766 23.7253 79.3766 24.5C79.3766 25.2653 79.6426 25.9233 80.1746 26.474ZM92.729 24.052V21H93.653V28H92.729V24.948H88.697V28H87.773V21H88.697V24.052H92.729ZM98.869 28.168C97.8143 28.168 96.937 27.818 96.237 27.118C95.537 26.3993 95.187 25.5267 95.187 24.5C95.187 23.464 95.537 22.596 96.237 21.896C96.937 21.1867 97.8143 20.832 98.869 20.832C99.5596 20.832 100.18 21 100.731 21.336C101.282 21.6627 101.683 22.106 101.935 22.666L101.179 23.1C100.992 22.68 100.689 22.3487 100.269 22.106C99.8583 21.854 99.3916 21.728 98.869 21.728C98.0943 21.728 97.441 21.9987 96.909 22.54C96.377 23.072 96.111 23.7253 96.111 24.5C96.111 25.2653 96.377 25.9233 96.909 26.474C97.441 27.006 98.0943 27.272 98.869 27.272C99.3823 27.272 99.8443 27.1507 100.255 26.908C100.675 26.6653 101.002 26.3293 101.235 25.9L102.005 26.348C101.716 26.908 101.291 27.3513 100.731 27.678C100.171 28.0047 99.5503 28.168 98.869 28.168ZM105.236 24.36L108.988 28H107.756L104.256 24.626V28H103.332V21H104.256V24.094L107.588 21H108.848L105.236 24.36ZM111.174 26.39L115.346 21H116.13V28H115.206V22.61L111.034 28H110.25V21H111.174V26.39ZM121.318 20.832C122.363 20.832 123.198 21.2007 123.824 21.938C124.468 22.666 124.79 23.5293 124.79 24.528C124.79 24.5747 124.78 24.7193 124.762 24.962H118.616C118.709 25.662 119.008 26.222 119.512 26.642C120.016 27.062 120.646 27.272 121.402 27.272C122.466 27.272 123.217 26.8753 123.656 26.082L124.468 26.558C124.16 27.062 123.735 27.4587 123.194 27.748C122.662 28.028 122.06 28.168 121.388 28.168C120.286 28.168 119.39 27.8227 118.7 27.132C118.009 26.4413 117.664 25.564 117.664 24.5C117.664 23.4453 118.004 22.5727 118.686 21.882C119.367 21.182 120.244 20.832 121.318 20.832ZM121.318 21.728C120.59 21.728 119.978 21.9427 119.484 22.372C118.998 22.8013 118.709 23.366 118.616 24.066H123.838C123.735 23.3193 123.45 22.7453 122.984 22.344C122.498 21.9333 121.943 21.728 121.318 21.728Z" fill="white"/>
</svg>
