<svg width="48" height="48" viewBox="0 0 48 48" fill="none" xmlns="http://www.w3.org/2000/svg">
<path d="M1 15.936C1 12.678 1.17588 10.1282 1.62072 8.12656C2.06304 6.1363 2.75787 4.74987 3.75387 3.75387C4.74987 2.75787 6.1363 2.06304 8.12656 1.62072C10.1282 1.17588 12.678 1 15.936 1H32.064C35.322 1 37.8718 1.17588 39.8734 1.62072C41.8637 2.06304 43.2501 2.75787 44.2461 3.75387C45.2421 4.74987 45.937 6.1363 46.3793 8.12656C46.8241 10.1282 47 12.678 47 15.936V32.064C47 35.322 46.8241 37.8718 46.3793 39.8734C45.937 41.8637 45.2421 43.2501 44.2461 44.2461C43.2501 45.2421 41.8637 45.937 39.8734 46.3793C37.8718 46.8241 35.322 47 32.064 47H15.936C12.678 47 10.1282 46.8241 8.12656 46.3793C6.1363 45.937 4.74987 45.2421 3.75387 44.2461C2.75787 43.2501 2.06304 41.8637 1.62072 39.8734C1.17588 37.8718 1 35.322 1 32.064V15.936Z" fill="#555555" stroke="#1C1C1C" stroke-width="2"/>
<path fill-rule="evenodd" clip-rule="evenodd" d="M26 24C26 22.897 25.103 22 24 22C22.897 22 22 22.897 22 24C22 25.103 22.897 26 24 26C25.103 26 26 25.103 26 24ZM28 24C28 26.206 26.206 28 24 28C21.794 28 20 26.206 20 24C20 21.794 21.794 20 24 20C26.206 20 28 21.794 28 24ZM18.27 28.143L16.831 29.532C16.434 29.916 16.423 30.55 16.807 30.946C17.003 31.149 17.264 31.252 17.526 31.252C17.776 31.252 18.026 31.159 18.221 30.972L19.66 29.582C20.057 29.198 20.068 28.564 19.684 28.168C19.301 27.771 18.668 27.76 18.27 28.143ZM29.73 28.143C29.333 27.76 28.7 27.771 28.316 28.168C27.932 28.564 27.943 29.198 28.34 29.582L29.779 30.972C29.974 31.159 30.224 31.252 30.474 31.252C30.736 31.252 30.997 31.149 31.193 30.946C31.577 30.55 31.566 29.916 31.169 29.532L29.73 28.143ZM24 30C23.448 30 23 30.447 23 31V33C23 33.553 23.448 34 24 34C24.552 34 25 33.553 25 33V31C25 30.447 24.552 30 24 30ZM29.035 20.138C29.285 20.138 29.536 20.045 29.73 19.857L31.169 18.468C31.566 18.084 31.577 17.45 31.193 17.054C30.81 16.657 30.178 16.646 29.779 17.028L28.34 18.418C27.943 18.802 27.932 19.436 28.316 19.832C28.512 20.035 28.773 20.138 29.035 20.138ZM18.221 17.028C17.824 16.646 17.191 16.657 16.807 17.054C16.423 17.45 16.434 18.084 16.831 18.468L18.27 19.857C18.464 20.045 18.715 20.138 18.965 20.138C19.227 20.138 19.488 20.035 19.684 19.832C20.068 19.436 20.057 18.802 19.66 18.418L18.221 17.028ZM18 24C18 23.447 17.552 23 17 23H15C14.448 23 14 23.447 14 24C14 24.553 14.448 25 15 25H17C17.552 25 18 24.553 18 24ZM33 23H31C30.448 23 30 23.447 30 24C30 24.553 30.448 25 31 25H33C33.552 25 34 24.553 34 24C34 23.447 33.552 23 33 23ZM23 17V15C23 14.447 23.448 14 24 14C24.552 14 25 14.447 25 15V17C25 17.553 24.552 18 24 18C23.448 18 23 17.553 23 17Z" fill="white"/>
</svg>
